<svg xmlns="http://www.w3.org/2000/svg" viewBox="0 0 1200 500" width="1200" height="500">

    {% for district in districts %}
        <rect class="{{district}}" x="{{70+loop.index0*30}}" y="{{420 - avg_Score[district]*3.6}}" width="25" height="{{avg_Score[district]*3.6}}" fill="#ececec"/>
    {% endfor %} 

    {% for district in districts %}
        <text class="xaxislabel" x="{{82.5+loop.index0*30}}" y="440" font-size="14" text-anchor="middle">{{district}}</text>
    {% endfor %}
    
    {% for i in range(5) %}
        <text class="yaxislabel" x="55" y="{{425 - 90*i}}" font-size="12" text-anchor="end">{{i}}</text>
    {% endfor %}

    <text class="title" x="535" y="40" font-size="32" text-anchor="middle">Overall Average Test Score per District in {{year}}</text>
    <text class="title" x="535" y="65" font-size="24" text-anchor="middle">With Percentage of Economically Disadvantaged Students per District</text>

    <line class="xaxis" x1="60" y1="420" x2="1040" y2="420" stroke="#000000" stroke-width="4"/>
    <text class="xaxis" x="550" y="490" font-size="18" font-weight="bold" text-anchor="middle">District and Borough</text>
    <line class="yaxis" x1="60" y1="420" x2="60" y2="60" stroke="#000000" stroke-width="4"/>
    <text class="yaxis" x="-240" y="30" font-size="18" font-weight="bold" text-anchor="middle" transform="translate(0, 10) rotate(270)">Avg Test Score</text>

    <text class="legend" x="1125" y="120" font-size="14" text-anchor="middle">% Econ Disadv Students</text>
    {% for color in bar_Colors %}
        <rect class="legend" x="1100" y="{{135+loop.index0*20}}" width="20" height="20" fill="{{color}}"/>
        <text class="legend" x="1125" y="{{150+loop.index0*20}}" font-size="12" text-anchor="start">{{30+loop.index0*10}}-{{39+loop.index0*10}}%</text>
    {% endfor %}

    <text class="queens" x="862.5" y="460" font-size="16"  text-anchor="middle">Queens</text>
    <text class="bronx" x="337.5" y="460" font-size="16" text-anchor="middle">Bronx</text>
    <text class="manhattan" x="152.5" y="460" font-size="16" text-anchor="middle">Manhattan</text>
    <text class="brooklyn" x="592.5" y="460" font-size="16" text-anchor="middle">Brooklyn</text>
    <text class="statenisland" x="982.5" y="460" font-size="16" text-anchor="middle">S.I.</text>
    <text class="brooklyn" x="1012.5" y="460" font-size="16" text-anchor="middle">Bk</text>

    <g class="manhattan">
        <line x1="82.5" y1="457" x2="106" y2="457" stroke="#000000" stroke-width="1"/>
        <line x1="199" y1="457" x2="232.5" y2="457" stroke="#000000" stroke-width="1"/>
        <line x1="82.5" y1="447" x2="82.5" y2="457" stroke="#000000" stroke-width="1"/>
        <line x1="232.5" y1="447" x2="232.5" y2="457" stroke="#000000" stroke-width="1"/>
    </g>
    <g class="bronx">
        <line x1="262.5" y1="457" x2="310.5" y2="457" stroke="#000000" stroke-width="1"/>
        <line x1="364.5" y1="457" x2="412.5" y2="457" stroke="#000000" stroke-width="1"/>
        <line x1="262.5" y1="447" x2="262.5" y2="457" stroke="#000000" stroke-width="1"/>
        <line x1="412.5" y1="447" x2="412.5" y2="457" stroke="#000000" stroke-width="1"/>
    </g>
    <g class="brooklyn">
        <line x1="442.5" y1="457" x2="552.5" y2="457" stroke="#000000" stroke-width="1"/>
        <line x1="632.5" y1="457" x2="742.5" y2="457" stroke="#000000" stroke-width="1"/>
        <line x1="442.5" y1="447" x2="442.5" y2="457" stroke="#000000" stroke-width="1"/>
        <line x1="742.5" y1="447" x2="742.5" y2="457" stroke="#000000" stroke-width="1"/>
    </g>
    <g class="queens">
        <line x1="772.5" y1="457" x2="828.5" y2="457" stroke="#000000" stroke-width="1"/>
        <line x1="896.5" y1="457" x2="952.5" y2="457" stroke="#000000" stroke-width="1"/>
        <line x1="772.5" y1="447" x2="772.5" y2="457" stroke="#000000" stroke-width="1"/>
        <line x1="952.5" y1="447" x2="952.5" y2="457" stroke="#000000" stroke-width="1"/>
    </g>

</svg>