<svg xmlns="http://www.w3.org/2000/svg" viewBox="0 0 575 500" width="575" height="500">

    {% for yearNum in range(numYears) %}
        <line class="econdisadv" x1="{{60+loop.index0*52.5}}" y1="{{420-(district_Scores["Econ Disadv"][years[yearNum]]*3.6)}}" x2="{{60+(loop.index0+1)*52.5}}" y2="{{420-(district_Scores["Econ Disadv"][years[yearNum+1]]*3.6)}}" stroke="#f50505" stroke-width="4"/>
        {% if loop.index0 == numYears-1 %}
            <text class="linelabel" x="{{60+(loop.index0+1)*52.5}}" y="{{420-(district_Scores["Econ Disadv"][years[yearNum+1]]*3.6)}}" font-size="10">Econ Disadv</text>
            <line class="linelabel" x1="{{115+(loop.index0+1)*52.5}}" y1="{{417-(district_Scores["Econ Disadv"][years[yearNum+1]]*3.6)}}" x2="{{130+(loop.index0+1)*52.5}}" y2="{{417-(district_Scores["Econ Disadv"][years[yearNum+1]]*3.6)}}" stroke="#f50505" stroke-width="4"/>
        {% endif %}
    {% endfor %}

    {% for yearNum in range(numYears) %}
        <line class="notecondisadv" x1="{{60+loop.index0*52.5}}" y1="{{420-(district_Scores["Not Econ Disadv"][years[yearNum]]*3.6)}}" x2="{{60+(loop.index0+1)*52.5}}" y2="{{420-(district_Scores["Not Econ Disadv"][years[yearNum+1]]*3.6)}}" stroke="#000000" stroke-width="4"/>
        {% if loop.index0 == numYears-1 %}
            <text class="linelabel" x="{{60+(loop.index0+1)*52.5}}" y="{{426-(district_Scores["Not Econ Disadv"][years[yearNum+1]]*3.6)}}" font-size="10">Not Econ Disadv</text>
            <line class="linelabel" x1="{{135+(loop.index0+1)*52.5}}" y1="{{424-(district_Scores["Not Econ Disadv"][years[yearNum+1]]*3.6)}}" x2="{{150+(loop.index0+1)*52.5}}" y2="{{424-(district_Scores["Not Econ Disadv"][years[yearNum+1]]*3.6)}}" stroke="#000000" stroke-width="4"/>
        {% endif %}
    {% endfor %} 

    {% for year in years %}
        <text class="xaxislabel" x="{{480-loop.index0*52.5}}" y="438" font-size="12" text-anchor="middle">{{year}}</text>
    {% endfor %}
    <text class="xaxis" x="270" y="460" font-size="15" text-anchor="middle">Year</text>

    {% for n in range(11) %}
        <text class="yaxislabel" x="55" y="{{420-(n*35.5)+2.5}}" font-size="12" text-anchor="end">{{n*10}}</text>
    {% endfor %}
    <text class="yaxis" x="-240" y="30" font-size="15" text-anchor="middle" transform="translate(0, 10) rotate(270)">Percentage of Test-Takers</text>

    <text class="title" x="270" y="45" font-size="22" text-anchor="middle">Percent of test-takers in District {{district}} that scored a {{score}}</text>

    <line class="xaxis" x1="60" y1="420" x2="480" y2="420" stroke="#000000" stroke-width="4"/>
    <line class="yaxis" x1="60" y1="420" x2="60" y2="60" stroke="#000000" stroke-width="4"/>
    <!-- 360 per 100
    3.6 per 1 
    
    420 long xaxis
    52.5 per year
    inkscape

    python flask jinja html svg csv http js
    -->
</svg>